<?xml version="1.0" standalone="no"?>
<!DOCTYPE svg PUBLIC "-//W3C//DTD SVG 20010904//EN"
 "http://www.w3.org/TR/2001/REC-SVG-20010904/DTD/svg10.dtd">
<svg version="1.0" xmlns="http://www.w3.org/2000/svg"
 width="1080.000000pt" height="1080.000000pt" viewBox="0 0 1080.000000 1080.000000"
 preserveAspectRatio="xMidYMid meet">
<metadata>
Created by potrace 1.14, written by Peter Selinger 2001-2017
</metadata>
<g transform="translate(0.000000,1080.000000) scale(0.100000,-0.100000)"
fill="#000000" stroke="none">
<path d="M5275 8716 c-92 -29 -168 -83 -217 -154 -52 -76 -67 -129 -73 -264
-3 -68 -11 -150 -17 -183 -5 -33 -12 -73 -15 -90 -21 -132 -151 -550 -217
-698 -8 -18 -38 -86 -67 -152 -77 -173 -184 -382 -282 -550 -20 -33 -51 -87
-71 -121 -50 -87 -195 -300 -292 -432 -162 -217 -414 -477 -551 -569 -202
-134 -280 -347 -195 -527 82 -173 299 -275 475 -222 25 7 79 36 119 62 40 27
82 54 93 60 11 7 72 43 135 81 293 177 597 306 890 378 183 46 406 63 548 44
412 -57 869 -243 1316 -538 122 -80 173 -96 285 -88 279 19 447 311 322 561
-33 66 -76 117 -137 162 -310 229 -613 586 -899 1059 -131 216 -308 562 -375
730 -17 44 -38 94 -45 110 -20 43 -62 164 -101 288 -77 246 -113 424 -121 597
-8 200 -38 278 -147 377 -74 68 -141 93 -244 92 -42 0 -95 -6 -117 -13z m189
-2068 c80 -164 212 -412 251 -472 l19 -28 -40 6 c-170 26 -501 26 -631 0 -18
-4 -33 -4 -33 0 0 4 18 35 39 69 80 128 301 559 301 587 0 25 15 -1 94 -162z"/>
<path d="M3510 7729 c-386 -98 -539 -563 -287 -871 123 -149 328 -220 527
-182 195 37 370 205 415 401 20 86 14 224 -14 306 -88 261 -372 414 -641 346z"/>
<path d="M6955 7739 c-69 -11 -129 -36 -203 -82 -243 -153 -317 -503 -157
-744 154 -232 443 -313 690 -194 185 90 298 263 304 469 3 99 -14 173 -60 262
-112 217 -333 328 -574 289z"/>
<path d="M5243 5025 c-196 -54 -358 -227 -392 -420 -23 -127 3 -276 66 -384
38 -65 140 -161 211 -198 188 -99 413 -81 581 45 175 132 250 348 196 567 -45
182 -183 327 -367 383 -77 24 -221 27 -295 7z"/>
<path d="M7366 3685 c-25 -12 -54 -33 -65 -46 -26 -31 -51 -103 -51 -146 0
-32 -1 -33 -45 -33 l-45 0 0 -65 0 -65 45 0 45 0 0 -225 0 -225 85 0 85 0 0
225 0 225 75 0 75 0 0 65 0 64 -77 3 c-85 3 -91 10 -67 66 15 37 51 50 104 35
l37 -9 20 62 21 63 -41 16 c-54 22 -144 17 -201 -10z"/>
<path d="M6031 3649 c-64 -12 -142 -60 -176 -108 -27 -39 -30 -50 -30 -119 0
-67 3 -82 25 -110 37 -50 91 -77 231 -115 69 -19 135 -41 147 -48 52 -33 44
-90 -18 -122 -63 -33 -225 -11 -316 42 l-31 19 -29 -60 c-22 -45 -26 -63 -18
-76 6 -9 49 -30 95 -46 151 -53 336 -42 434 25 100 69 124 215 49 299 -47 52
-74 63 -269 114 -93 24 -135 50 -135 84 0 26 32 68 60 79 62 23 211 5 265 -33
24 -17 45 -18 45 -1 1 6 11 35 24 62 29 60 26 65 -64 95 -72 24 -214 34 -289
19z"/>
<path d="M2580 3643 c0 -5 55 -177 123 -383 l123 -375 95 -3 95 -3 24 73 c13
40 26 78 29 83 3 6 6 15 7 20 3 22 107 321 114 328 4 5 15 -16 24 -45 10 -29
47 -144 83 -255 l66 -203 99 0 c96 0 98 0 98 23 0 13 3 27 8 31 4 4 7 11 8 14
0 4 3 14 6 22 13 33 218 667 218 673 0 4 -37 7 -83 7 l-82 0 -88 -270 c-48
-148 -90 -270 -92 -270 -2 0 -8 15 -14 33 -5 17 -44 139 -86 270 l-77 237 -82
0 -83 0 -18 -57 c-9 -32 -37 -114 -60 -183 -24 -69 -56 -165 -73 -215 l-29
-90 -63 195 c-34 107 -73 230 -87 273 l-25 77 -89 0 c-49 0 -89 -3 -89 -7z"/>
<path d="M3993 3469 c-28 -5 -77 -20 -107 -35 l-55 -26 31 -57 c17 -31 31 -57
32 -58 1 -1 21 7 44 18 89 44 213 34 245 -20 33 -56 27 -61 -70 -62 -173 -1
-231 -21 -276 -89 -57 -88 -14 -204 95 -253 59 -26 176 -18 228 17 22 14 40
32 40 39 0 8 3 8 9 -2 5 -8 7 -25 5 -38 -4 -23 -3 -23 76 -23 l80 0 1 178 c1
97 1 179 1 182 -7 141 -99 226 -252 235 -41 2 -98 -1 -127 -6z m208 -361 c2
-41 -2 -53 -30 -81 -39 -40 -124 -49 -163 -17 -28 21 -37 61 -20 87 14 22 56
32 135 32 73 1 77 0 78 -21z"/>
<path d="M5340 3466 c-188 -49 -278 -255 -188 -433 81 -161 358 -216 504 -100
l41 33 -42 47 -43 47 -54 -25 c-89 -41 -171 -32 -230 27 -68 68 -67 68 186 68
l224 0 -3 63 c-1 34 -11 82 -20 107 -23 59 -110 142 -167 160 -58 18 -153 21
-208 6z m158 -130 c34 -18 58 -44 71 -79 l11 -27 -145 0 c-161 0 -166 3 -124
62 38 53 128 74 187 44z"/>
<path d="M6680 3467 c-59 -14 -126 -43 -136 -59 -4 -6 6 -34 21 -63 l28 -53
46 22 c34 15 66 21 124 21 76 0 80 -1 108 -33 16 -18 29 -41 29 -51 0 -17 -11
-19 -117 -23 -173 -8 -238 -39 -263 -128 -15 -53 -12 -81 11 -125 35 -65 88
-95 180 -102 72 -6 129 10 168 46 31 29 35 27 31 -16 -1 -22 2 -23 79 -23 l80
0 3 58 c2 31 1 129 -2 218 -5 157 -6 162 -35 210 -43 69 -112 103 -220 109
-46 3 -103 -1 -135 -8z m221 -349 c7 -77 -36 -122 -121 -127 -57 -3 -100 26
-100 67 0 55 31 71 138 72 58 0 82 -4 83 -12z"/>
<path d="M7830 3467 c-159 -45 -248 -195 -216 -362 17 -87 91 -172 186 -210
54 -22 192 -28 248 -12 45 14 132 67 132 80 0 11 -57 79 -76 90 -7 4 -27 -1
-46 -12 -76 -44 -175 -39 -231 12 -20 18 -38 42 -42 55 l-6 22 220 0 c249 0
237 -4 227 85 -13 105 -78 195 -171 236 -55 25 -167 33 -225 16z m158 -131
c35 -18 68 -55 75 -83 l5 -23 -144 0 c-160 0 -165 3 -123 62 38 53 128 75 187
44z"/>
<path d="M4456 3413 c14 -32 32 -74 39 -93 8 -19 52 -125 99 -235 l85 -200 88
-3 88 -3 123 289 c67 158 122 291 122 295 0 4 -35 7 -79 7 l-79 0 -28 -67
c-15 -38 -54 -129 -85 -202 l-57 -135 -15 36 c-8 19 -45 110 -82 202 l-68 166
-88 0 -89 0 26 -57z"/>
</g>
</svg>
